<svg width="250" height="250" viewBox="0 0 250 250" fill="none" xmlns="http://www.w3.org/2000/svg">
<path d="M139.687 125L184.479 80.3125C186.44 78.351 187.542 75.6906 187.542 72.9167C187.542 70.1427 186.44 67.4823 184.479 65.5208C182.517 63.5593 179.857 62.4574 177.083 62.4574C174.309 62.4574 171.648 63.5593 169.687 65.5208L124.999 110.313L80.3119 65.5208C78.3504 63.5593 75.69 62.4574 72.916 62.4574C70.1421 62.4574 67.4817 63.5593 65.5202 65.5208C63.5587 67.4823 62.4567 70.1427 62.4567 72.9167C62.4567 75.6906 63.5587 78.351 65.5202 80.3125L110.312 125L65.5202 169.688C64.5439 170.656 63.7689 171.808 63.2401 173.077C62.7112 174.347 62.439 175.708 62.439 177.083C62.439 178.458 62.7112 179.82 63.2401 181.089C63.7689 182.359 64.5439 183.511 65.5202 184.479C66.4886 185.455 67.6407 186.23 68.91 186.759C70.1794 187.288 71.5409 187.56 72.916 187.56C74.2912 187.56 75.6527 187.288 76.922 186.759C78.1914 186.23 79.3435 185.455 80.3119 184.479L124.999 139.688L169.687 184.479C170.655 185.455 171.807 186.23 173.077 186.759C174.346 187.288 175.708 187.56 177.083 187.56C178.458 187.56 179.819 187.288 181.089 186.759C182.358 186.23 183.51 185.455 184.479 184.479C185.455 183.511 186.23 182.359 186.759 181.089C187.288 179.82 187.56 178.458 187.56 177.083C187.56 175.708 187.288 174.347 186.759 173.077C186.23 171.808 185.455 170.656 184.479 169.688L139.687 125Z" fill="#FF4646"/>
</svg>
