<svg width="85" height="75" viewBox="0 0 85 75" fill="none" xmlns="http://www.w3.org/2000/svg">
<g filter="url(#filter0_d)">
<rect x="74.0454" y="28.9318" width="25.8864" height="1.52273" rx="0.761364" transform="rotate(-90 74.0454 28.9318)" fill="white"/>
</g>
<g filter="url(#filter1_d)">
<rect x="4" y="25.8864" width="9.13636" height="15.2273" rx="4.56818" fill="url(#paint0_linear)"/>
</g>
<g filter="url(#filter2_d)">
<rect x="71" y="25.8864" width="9.13636" height="15.2273" rx="4.56818" fill="url(#paint1_linear)"/>
</g>
<g filter="url(#filter3_d)">
<circle cx="42.0682" cy="33.5" r="33.5" fill="url(#paint2_linear)"/>
</g>
<ellipse cx="42.0682" cy="32.7387" rx="33.5" ry="25.8864" fill="url(#paint3_linear)"/>
<g filter="url(#filter4_i)">
<rect x="37.5" y="60.1477" width="9.13636" height="5.32955" rx="2.66477" fill="url(#paint4_linear)"/>
</g>
<g filter="url(#filter5_d)">
<path d="M26.5333 27.196C26.5333 26.804 26.3793 26.4633 26.0713 26.174C25.7727 25.8847 25.348 25.74 24.7973 25.74C24.3307 25.74 23.962 25.838 23.6913 26.034C23.4207 26.2207 23.2853 26.4773 23.2853 26.804C23.2853 26.972 23.318 27.126 23.3833 27.266C23.4487 27.3967 23.5607 27.518 23.7193 27.63C23.8873 27.7327 24.102 27.826 24.3633 27.91C24.634 27.994 24.9747 28.0733 25.3853 28.148C26.412 28.3347 27.196 28.6473 27.7373 29.086C28.2787 29.5247 28.5493 30.1733 28.5493 31.032V31.2C28.5493 31.6573 28.4653 32.0727 28.2973 32.446C28.1387 32.81 27.9053 33.1227 27.5973 33.384C27.2893 33.6453 26.916 33.846 26.4773 33.986C26.0387 34.126 25.544 34.196 24.9933 34.196C24.3493 34.196 23.78 34.1073 23.2853 33.93C22.8 33.7433 22.394 33.4913 22.0673 33.174C21.7407 32.8473 21.4933 32.4693 21.3253 32.04C21.1573 31.6013 21.0733 31.1253 21.0733 30.612V30.192H22.9213V30.528C22.9213 31.116 23.0893 31.5873 23.4253 31.942C23.7707 32.2873 24.3027 32.46 25.0213 32.46C25.5813 32.46 25.9967 32.3387 26.2673 32.096C26.538 31.8533 26.6733 31.564 26.6733 31.228C26.6733 31.0693 26.6453 30.92 26.5893 30.78C26.5333 30.6307 26.4353 30.5 26.2953 30.388C26.1553 30.2667 25.964 30.1593 25.7213 30.066C25.4787 29.9727 25.1707 29.8933 24.7973 29.828C24.3027 29.744 23.85 29.6367 23.4393 29.506C23.0287 29.366 22.6693 29.184 22.3613 28.96C22.0627 28.736 21.8293 28.456 21.6613 28.12C21.4933 27.784 21.4093 27.3733 21.4093 26.888V26.804C21.4093 26.4027 21.4887 26.034 21.6473 25.698C21.8153 25.3527 22.044 25.054 22.3333 24.802C22.632 24.55 22.9867 24.354 23.3973 24.214C23.8173 24.074 24.284 24.004 24.7973 24.004C25.376 24.004 25.8893 24.088 26.3373 24.256C26.7853 24.4147 27.1587 24.634 27.4573 24.914C27.7653 25.194 27.994 25.516 28.1433 25.88C28.302 26.244 28.3813 26.6267 28.3813 27.028V27.532H26.5333V27.196ZM31.9976 30.304V34H30.1496V24.2H33.9856C34.4896 24.2 34.9283 24.284 35.3016 24.452C35.6749 24.6107 35.9829 24.8253 36.2256 25.096C36.4776 25.3573 36.6643 25.6607 36.7856 26.006C36.9163 26.342 36.9816 26.6873 36.9816 27.042V27.378C36.9816 27.742 36.9163 28.1013 36.7856 28.456C36.6643 28.8013 36.4776 29.114 36.2256 29.394C35.9829 29.6647 35.6749 29.884 35.3016 30.052C34.9283 30.22 34.4896 30.304 33.9856 30.304H31.9976ZM31.9976 28.54H33.8036C34.2143 28.54 34.5363 28.428 34.7696 28.204C35.0123 27.98 35.1336 27.6907 35.1336 27.336V27.168C35.1336 26.8133 35.0123 26.524 34.7696 26.3C34.5363 26.076 34.2143 25.964 33.8036 25.964H31.9976V28.54ZM38.8619 24.2H45.0499V25.964H40.7099V28.204H44.8819V29.968H40.7099V32.236H45.2179V34H38.8619V24.2ZM47.4341 24.2H49.2821V32.236H53.7341V34H47.4341V24.2ZM56.0064 24.2H57.8544V32.236H62.3064V34H56.0064V24.2ZM26.5333 37.196C26.5333 36.804 26.3793 36.4633 26.0713 36.174C25.7727 35.8847 25.348 35.74 24.7973 35.74C24.3307 35.74 23.962 35.838 23.6913 36.034C23.4207 36.2207 23.2853 36.4773 23.2853 36.804C23.2853 36.972 23.318 37.126 23.3833 37.266C23.4487 37.3967 23.5607 37.518 23.7193 37.63C23.8873 37.7327 24.102 37.826 24.3633 37.91C24.634 37.994 24.9747 38.0733 25.3853 38.148C26.412 38.3347 27.196 38.6473 27.7373 39.086C28.2787 39.5247 28.5493 40.1733 28.5493 41.032V41.2C28.5493 41.6573 28.4653 42.0727 28.2973 42.446C28.1387 42.81 27.9053 43.1227 27.5973 43.384C27.2893 43.6453 26.916 43.846 26.4773 43.986C26.0387 44.126 25.544 44.196 24.9933 44.196C24.3493 44.196 23.78 44.1073 23.2853 43.93C22.8 43.7433 22.394 43.4913 22.0673 43.174C21.7407 42.8473 21.4933 42.4693 21.3253 42.04C21.1573 41.6013 21.0733 41.1253 21.0733 40.612V40.192H22.9213V40.528C22.9213 41.116 23.0893 41.5873 23.4253 41.942C23.7707 42.2873 24.3027 42.46 25.0213 42.46C25.5813 42.46 25.9967 42.3387 26.2673 42.096C26.538 41.8533 26.6733 41.564 26.6733 41.228C26.6733 41.0693 26.6453 40.92 26.5893 40.78C26.5333 40.6307 26.4353 40.5 26.2953 40.388C26.1553 40.2667 25.964 40.1593 25.7213 40.066C25.4787 39.9727 25.1707 39.8933 24.7973 39.828C24.3027 39.744 23.85 39.6367 23.4393 39.506C23.0287 39.366 22.6693 39.184 22.3613 38.96C22.0627 38.736 21.8293 38.456 21.6613 38.12C21.4933 37.784 21.4093 37.3733 21.4093 36.888V36.804C21.4093 36.4027 21.4887 36.034 21.6473 35.698C21.8153 35.3527 22.044 35.054 22.3333 34.802C22.632 34.55 22.9867 34.354 23.3973 34.214C23.8173 34.074 24.284 34.004 24.7973 34.004C25.376 34.004 25.8893 34.088 26.3373 34.256C26.7853 34.4147 27.1587 34.634 27.4573 34.914C27.7653 35.194 27.994 35.516 28.1433 35.88C28.302 36.244 28.3813 36.6267 28.3813 37.028V37.532H26.5333V37.196ZM31.9976 40.304V44H30.1496V34.2H33.9856C34.4896 34.2 34.9283 34.284 35.3016 34.452C35.6749 34.6107 35.9829 34.8253 36.2256 35.096C36.4776 35.3573 36.6643 35.6607 36.7856 36.006C36.9163 36.342 36.9816 36.6873 36.9816 37.042V37.378C36.9816 37.742 36.9163 38.1013 36.7856 38.456C36.6643 38.8013 36.4776 39.114 36.2256 39.394C35.9829 39.6647 35.6749 39.884 35.3016 40.052C34.9283 40.22 34.4896 40.304 33.9856 40.304H31.9976ZM31.9976 38.54H33.8036C34.2143 38.54 34.5363 38.428 34.7696 38.204C35.0123 37.98 35.1336 37.6907 35.1336 37.336V37.168C35.1336 36.8133 35.0123 36.524 34.7696 36.3C34.5363 36.076 34.2143 35.964 33.8036 35.964H31.9976V38.54ZM43.6639 41.9H40.3319L39.8559 44H37.9239L40.2619 34.2H43.7339L46.0719 44H44.1399L43.6639 41.9ZM40.7239 40.136H43.2579L42.1239 35.124H41.8719L40.7239 40.136ZM50.5981 42.516C50.9528 42.516 51.2421 42.4647 51.4661 42.362C51.6995 42.25 51.8768 42.1053 51.9981 41.928C52.1288 41.7413 52.2175 41.5313 52.2641 41.298C52.3108 41.0553 52.3341 40.808 52.3341 40.556V40.304H54.1821V40.556C54.1821 41.7227 53.8741 42.6233 53.2581 43.258C52.6515 43.8833 51.7648 44.196 50.5981 44.196C49.4781 44.196 48.5915 43.8553 47.9381 43.174C47.2848 42.4927 46.9581 41.4987 46.9581 40.192V38.008C46.9581 37.3827 47.0421 36.8227 47.2101 36.328C47.3781 35.824 47.6208 35.404 47.9381 35.068C48.2555 34.7227 48.6381 34.4613 49.0861 34.284C49.5341 34.0973 50.0381 34.004 50.5981 34.004C51.1768 34.004 51.6901 34.088 52.1381 34.256C52.5861 34.424 52.9595 34.6667 53.2581 34.984C53.5661 35.3013 53.7948 35.684 53.9441 36.132C54.1028 36.58 54.1821 37.084 54.1821 37.644V37.896H52.3341V37.644C52.3341 37.4107 52.3061 37.1773 52.2501 36.944C52.1941 36.7107 52.1008 36.5007 51.9701 36.314C51.8395 36.1273 51.6621 35.978 51.4381 35.866C51.2141 35.7447 50.9341 35.684 50.5981 35.684C50.2901 35.684 50.0241 35.7447 49.8001 35.866C49.5761 35.978 49.3895 36.1367 49.2401 36.342C49.0908 36.538 48.9788 36.7713 48.9041 37.042C48.8388 37.3033 48.8061 37.5787 48.8061 37.868V40.332C48.8061 40.6493 48.8388 40.9433 48.9041 41.214C48.9695 41.4753 49.0721 41.704 49.2121 41.9C49.3521 42.096 49.5341 42.25 49.7581 42.362C49.9915 42.4647 50.2715 42.516 50.5981 42.516ZM56.0064 34.2H62.1944V35.964H57.8544V38.204H62.0264V39.968H57.8544V42.236H62.3624V44H56.0064V34.2Z" fill="white"/>
</g>
<defs>
<filter id="filter0_d" x="70.0454" y="3.04547" width="9.52273" height="33.8864" filterUnits="userSpaceOnUse" color-interpolation-filters="sRGB">
<feFlood flood-opacity="0" result="BackgroundImageFix"/>
<feColorMatrix in="SourceAlpha" type="matrix" values="0 0 0 0 0 0 0 0 0 0 0 0 0 0 0 0 0 0 127 0"/>
<feOffset dy="4"/>
<feGaussianBlur stdDeviation="2"/>
<feColorMatrix type="matrix" values="0 0 0 0 0 0 0 0 0 0 0 0 0 0 0 0 0 0 0.25 0"/>
<feBlend mode="normal" in2="BackgroundImageFix" result="effect1_dropShadow"/>
<feBlend mode="normal" in="SourceGraphic" in2="effect1_dropShadow" result="shape"/>
</filter>
<filter id="filter1_d" x="0" y="25.8864" width="17.1364" height="23.2273" filterUnits="userSpaceOnUse" color-interpolation-filters="sRGB">
<feFlood flood-opacity="0" result="BackgroundImageFix"/>
<feColorMatrix in="SourceAlpha" type="matrix" values="0 0 0 0 0 0 0 0 0 0 0 0 0 0 0 0 0 0 127 0"/>
<feOffset dy="4"/>
<feGaussianBlur stdDeviation="2"/>
<feColorMatrix type="matrix" values="0 0 0 0 0 0 0 0 0 0 0 0 0 0 0 0 0 0 0.25 0"/>
<feBlend mode="normal" in2="BackgroundImageFix" result="effect1_dropShadow"/>
<feBlend mode="normal" in="SourceGraphic" in2="effect1_dropShadow" result="shape"/>
</filter>
<filter id="filter2_d" x="67" y="25.8864" width="17.1364" height="23.2273" filterUnits="userSpaceOnUse" color-interpolation-filters="sRGB">
<feFlood flood-opacity="0" result="BackgroundImageFix"/>
<feColorMatrix in="SourceAlpha" type="matrix" values="0 0 0 0 0 0 0 0 0 0 0 0 0 0 0 0 0 0 127 0"/>
<feOffset dy="4"/>
<feGaussianBlur stdDeviation="2"/>
<feColorMatrix type="matrix" values="0 0 0 0 0 0 0 0 0 0 0 0 0 0 0 0 0 0 0.25 0"/>
<feBlend mode="normal" in2="BackgroundImageFix" result="effect1_dropShadow"/>
<feBlend mode="normal" in="SourceGraphic" in2="effect1_dropShadow" result="shape"/>
</filter>
<filter id="filter3_d" x="4.56818" y="0" width="75" height="75" filterUnits="userSpaceOnUse" color-interpolation-filters="sRGB">
<feFlood flood-opacity="0" result="BackgroundImageFix"/>
<feColorMatrix in="SourceAlpha" type="matrix" values="0 0 0 0 0 0 0 0 0 0 0 0 0 0 0 0 0 0 127 0"/>
<feOffset dy="4"/>
<feGaussianBlur stdDeviation="2"/>
<feColorMatrix type="matrix" values="0 0 0 0 0 0 0 0 0 0 0 0 0 0 0 0 0 0 0.25 0"/>
<feBlend mode="normal" in2="BackgroundImageFix" result="effect1_dropShadow"/>
<feBlend mode="normal" in="SourceGraphic" in2="effect1_dropShadow" result="shape"/>
</filter>
<filter id="filter4_i" x="37.5" y="60.1477" width="9.13636" height="6.32955" filterUnits="userSpaceOnUse" color-interpolation-filters="sRGB">
<feFlood flood-opacity="0" result="BackgroundImageFix"/>
<feBlend mode="normal" in="SourceGraphic" in2="BackgroundImageFix" result="shape"/>
<feColorMatrix in="SourceAlpha" type="matrix" values="0 0 0 0 0 0 0 0 0 0 0 0 0 0 0 0 0 0 127 0" result="hardAlpha"/>
<feOffset dy="1"/>
<feGaussianBlur stdDeviation="0.5"/>
<feComposite in2="hardAlpha" operator="arithmetic" k2="-1" k3="1"/>
<feColorMatrix type="matrix" values="0 0 0 0 0 0 0 0 0 0 0 0 0 0 0 0 0 0 0.25 0"/>
<feBlend mode="normal" in2="shape" result="effect1_innerShadow"/>
</filter>
<filter id="filter5_d" x="17.0733" y="24.004" width="49.2891" height="28.192" filterUnits="userSpaceOnUse" color-interpolation-filters="sRGB">
<feFlood flood-opacity="0" result="BackgroundImageFix"/>
<feColorMatrix in="SourceAlpha" type="matrix" values="0 0 0 0 0 0 0 0 0 0 0 0 0 0 0 0 0 0 127 0"/>
<feOffset dy="4"/>
<feGaussianBlur stdDeviation="2"/>
<feColorMatrix type="matrix" values="0 0 0 0 0 0 0 0 0 0 0 0 0 0 0 0 0 0 0.25 0"/>
<feBlend mode="normal" in2="BackgroundImageFix" result="effect1_dropShadow"/>
<feBlend mode="normal" in="SourceGraphic" in2="effect1_dropShadow" result="shape"/>
</filter>
<linearGradient id="paint0_linear" x1="4" y1="33.5" x2="13.1364" y2="33.5" gradientUnits="userSpaceOnUse">
<stop stop-color="#ECE9E6"/>
<stop offset="1" stop-color="white"/>
</linearGradient>
<linearGradient id="paint1_linear" x1="71" y1="33.5" x2="80.1364" y2="33.5" gradientUnits="userSpaceOnUse">
<stop stop-color="#ECE9E6"/>
<stop offset="1" stop-color="white"/>
</linearGradient>
<linearGradient id="paint2_linear" x1="8.56818" y1="33.5" x2="75.5682" y2="33.5" gradientUnits="userSpaceOnUse">
<stop stop-color="#ECE9E6"/>
<stop offset="1" stop-color="white"/>
</linearGradient>
<linearGradient id="paint3_linear" x1="8.56818" y1="32.7387" x2="75.5682" y2="32.7387" gradientUnits="userSpaceOnUse">
<stop stop-color="#232526"/>
<stop offset="1" stop-color="#414345"/>
</linearGradient>
<linearGradient id="paint4_linear" x1="37.5" y1="62.8125" x2="46.6364" y2="62.8125" gradientUnits="userSpaceOnUse">
<stop stop-color="white"/>
<stop offset="1" stop-color="white"/>
</linearGradient>
</defs>
</svg>
