<svg width="300" height="300" viewBox="0 0 300 300" fill="none" xmlns="http://www.w3.org/2000/svg">
<path fill-rule="evenodd" clip-rule="evenodd" d="M205.688 93.1875C208.312 90.5863 211.854 89.1224 215.549 89.1122C219.244 89.102 222.794 90.5464 225.433 93.133C228.071 95.7197 229.585 99.2407 229.648 102.935C229.711 106.629 228.318 110.2 225.769 112.875L150.919 206.438C149.633 207.823 148.08 208.935 146.354 209.707C144.628 210.479 142.764 210.895 140.874 210.93C138.983 210.965 137.105 210.618 135.352 209.911C133.599 209.203 132.006 208.15 130.669 206.813L81.0754 157.2C79.6938 155.913 78.5856 154.36 77.817 152.635C77.0484 150.91 76.6351 149.048 76.6018 147.16C76.5685 145.272 76.9158 143.396 77.6231 141.645C78.3304 139.894 79.3831 138.303 80.7184 136.968C82.0538 135.633 83.6444 134.58 85.3954 133.873C87.1465 133.165 89.022 132.818 90.9102 132.851C92.7984 132.885 94.6605 133.298 96.3855 134.067C98.1105 134.835 99.663 135.943 100.95 137.325L140.213 176.569L205.332 93.6C205.448 93.4548 205.573 93.317 205.707 93.1875H205.688Z" fill="#00F5A0"/>
</svg>
