<svg width="44" height="44" viewBox="0 0 44 44" fill="none" xmlns="http://www.w3.org/2000/svg">
<circle cx="22" cy="22" r="22" fill="url(#paint0_linear)"/>
<g filter="url(#filter0_i)">
<path d="M18.0805 5.21717C18.6852 5.07435 19.3148 5.07435 19.9195 5.21717L26.3365 6.73281C27.6198 7.03589 28.5263 8.18145 28.5263 9.5C28.5263 10.8186 27.6198 11.9641 26.3365 12.2672L19.9195 13.7828C19.3148 13.9256 18.6852 13.9256 18.0805 13.7828L11.6635 12.2672C10.3802 11.9641 9.47372 10.8186 9.47372 9.5C9.47372 8.18145 10.3802 7.03589 11.6635 6.73281L18.0805 5.21717Z" fill="url(#paint1_linear)"/>
</g>
<g filter="url(#filter1_i)">
<path d="M19.3935 33.0595C20.7187 32.393 22.2813 32.393 23.6065 33.0595L24.678 33.5985C26.3501 34.4395 27.0485 36.459 26.2533 38.1533C25.6841 39.3661 24.4651 40.1406 23.1254 40.1406H19.8746C18.5349 40.1406 17.3159 39.3661 16.7467 38.1533C15.9515 36.459 16.6499 34.4395 18.322 33.5985L19.3935 33.0595Z" fill="url(#paint2_linear)"/>
</g>
<defs>
<filter id="filter0_i" x="9.47375" y="5.11006" width="19.0526" height="12.7799" filterUnits="userSpaceOnUse" color-interpolation-filters="sRGB">
<feFlood flood-opacity="0" result="BackgroundImageFix"/>
<feBlend mode="normal" in="SourceGraphic" in2="BackgroundImageFix" result="shape"/>
<feColorMatrix in="SourceAlpha" type="matrix" values="0 0 0 0 0 0 0 0 0 0 0 0 0 0 0 0 0 0 127 0" result="hardAlpha"/>
<feOffset dy="4"/>
<feGaussianBlur stdDeviation="2"/>
<feComposite in2="hardAlpha" operator="arithmetic" k2="-1" k3="1"/>
<feColorMatrix type="matrix" values="0 0 0 0 0 0 0 0 0 0 0 0 0 0 0 0 0 0 0.25 0"/>
<feBlend mode="normal" in2="shape" result="effect1_innerShadow"/>
</filter>
<filter id="filter1_i" x="16.4186" y="32.5596" width="10.1627" height="11.581" filterUnits="userSpaceOnUse" color-interpolation-filters="sRGB">
<feFlood flood-opacity="0" result="BackgroundImageFix"/>
<feBlend mode="normal" in="SourceGraphic" in2="BackgroundImageFix" result="shape"/>
<feColorMatrix in="SourceAlpha" type="matrix" values="0 0 0 0 0 0 0 0 0 0 0 0 0 0 0 0 0 0 127 0" result="hardAlpha"/>
<feOffset dy="4"/>
<feGaussianBlur stdDeviation="2"/>
<feComposite in2="hardAlpha" operator="arithmetic" k2="-1" k3="1"/>
<feColorMatrix type="matrix" values="0 0 0 0 0 0 0 0 0 0 0 0 0 0 0 0 0 0 0.25 0"/>
<feBlend mode="normal" in2="shape" result="effect1_innerShadow"/>
</filter>
<linearGradient id="paint0_linear" x1="0" y1="22" x2="44" y2="22" gradientUnits="userSpaceOnUse">
<stop stop-color="#ACB6E5"/>
<stop offset="1" stop-color="#86FDE8"/>
</linearGradient>
<linearGradient id="paint1_linear" x1="8" y1="9.5" x2="30" y2="9.5" gradientUnits="userSpaceOnUse">
<stop stop-color="#ACB6E5"/>
<stop offset="1" stop-color="#86FDE8"/>
</linearGradient>
<linearGradient id="paint2_linear" x1="15" y1="36.5" x2="28" y2="36.5" gradientUnits="userSpaceOnUse">
<stop stop-color="#ACB6E5"/>
<stop offset="1" stop-color="#86FDE8"/>
</linearGradient>
</defs>
</svg>
