<svg width="571" height="587" viewBox="0 0 571 587" fill="none" xmlns="http://www.w3.org/2000/svg">
<ellipse cx="433.08" cy="491.126" rx="93.9205" ry="33.5336" transform="rotate(47 433.08 491.126)" fill="url(#paint0_linear)"/>
<ellipse cx="438.632" cy="445.899" rx="60.4389" ry="33.5336" transform="rotate(22.2203 438.632 445.899)" fill="url(#paint1_linear)"/>
<ellipse cx="373.009" cy="473.752" rx="42.8414" ry="33.5336" transform="rotate(75.8157 373.009 473.752)" fill="url(#paint2_linear)"/>
<circle cx="401.471" cy="519.471" r="5.28248" transform="rotate(-135 401.471 519.471)" fill="url(#paint3_linear)"/>
<circle cx="494.265" cy="483.265" r="6.55115" transform="rotate(-135 494.265 483.265)" fill="url(#paint4_linear)"/>
<circle cx="498.265" cy="515.265" r="3.0156" transform="rotate(-135 498.265 515.265)" fill="url(#paint5_linear)"/>
<circle cx="405.265" cy="545.265" r="3.0156" transform="rotate(-135 405.265 545.265)" fill="url(#paint6_linear)"/>
<circle cx="439.265" cy="554.265" r="3.0156" transform="rotate(-135 439.265 554.265)" fill="url(#paint7_linear)"/>
<circle cx="383.265" cy="521.265" r="3.0156" transform="rotate(-135 383.265 521.265)" fill="url(#paint8_linear)"/>
<ellipse cx="399.629" cy="529.629" rx="17.0035" ry="0.85651" transform="rotate(-135 399.629 529.629)" fill="url(#paint9_linear)"/>
<ellipse cx="425.503" cy="542.503" rx="9.75437" ry="0.85651" transform="rotate(-135 425.503 542.503)" fill="url(#paint10_linear)"/>
<ellipse cx="509.546" cy="541.546" rx="5.57281" ry="0.85651" transform="rotate(-135 509.546 541.546)" fill="url(#paint11_linear)"/>
<ellipse cx="509.083" cy="515.083" rx="30.3734" ry="0.85651" transform="rotate(-135 509.083 515.083)" fill="url(#paint12_linear)"/>
<circle cx="509.765" cy="530.765" r="3.36916" transform="rotate(-135 509.765 530.765)" fill="url(#paint13_linear)"/>
<path d="M342.385 388.746C342.693 385.845 345.409 383.823 348.277 384.359L432.086 400.042C436.372 400.844 437.65 406.364 434.153 408.967L341.342 478.072C337.845 480.676 332.923 477.869 333.383 473.534L342.385 388.746Z" fill="url(#paint14_linear)"/>
<path d="M363.589 297.668C364.182 291.853 369.616 287.785 375.363 288.852L483.636 308.962C492.202 310.553 494.778 321.576 487.803 326.798L368.343 416.244C361.369 421.466 351.516 415.891 352.401 407.223L363.589 297.668Z" fill="url(#paint15_linear)"/>
<path d="M243.459 387.615C244.052 381.8 249.486 377.732 255.233 378.799L363.506 398.908C372.073 400.5 374.648 411.523 367.674 416.745L248.213 506.191C241.239 511.413 231.386 505.838 232.271 497.17L243.459 387.615Z" fill="url(#paint16_linear)"/>
<path d="M112.36 200.968C87.5339 167.811 94.2873 120.806 127.444 95.9796C160.601 71.1534 207.606 77.9069 232.432 111.064L427.224 371.22C427.555 371.662 427.465 372.289 427.022 372.62L308.551 461.325C308.109 461.656 307.482 461.566 307.151 461.124L112.36 200.968Z" fill="url(#paint17_linear)"/>
<rect x="130.996" y="155.783" width="73" height="19" rx="9.5" transform="rotate(-36.8239 130.996 155.783)" fill="url(#paint18_linear)"/>
<rect x="171.189" y="164.415" width="19" height="19" rx="9.5" transform="rotate(-36.8239 171.189 164.415)" fill="url(#paint19_linear)"/>
<defs>
<linearGradient id="paint0_linear" x1="339.16" y1="491.126" x2="527.001" y2="491.126" gradientUnits="userSpaceOnUse">
<stop stop-color="#C86403"/>
<stop offset="1" stop-color="#FFE259"/>
</linearGradient>
<linearGradient id="paint1_linear" x1="378.193" y1="445.899" x2="499.071" y2="445.899" gradientUnits="userSpaceOnUse">
<stop stop-color="#C86403"/>
<stop offset="1" stop-color="#FFE259"/>
</linearGradient>
<linearGradient id="paint2_linear" x1="330.168" y1="473.752" x2="415.851" y2="473.752" gradientUnits="userSpaceOnUse">
<stop stop-color="#C86403"/>
<stop offset="1" stop-color="#FFE259"/>
</linearGradient>
<linearGradient id="paint3_linear" x1="396.188" y1="519.471" x2="406.753" y2="519.471" gradientUnits="userSpaceOnUse">
<stop stop-color="#FF512F"/>
<stop offset="1" stop-color="#F09819"/>
</linearGradient>
<linearGradient id="paint4_linear" x1="487.714" y1="483.265" x2="500.816" y2="483.265" gradientUnits="userSpaceOnUse">
<stop stop-color="#C21500"/>
<stop offset="1" stop-color="#FFC500"/>
</linearGradient>
<linearGradient id="paint5_linear" x1="495.249" y1="515.265" x2="501.28" y2="515.265" gradientUnits="userSpaceOnUse">
<stop stop-color="#C21500"/>
<stop offset="1" stop-color="#FFC500"/>
</linearGradient>
<linearGradient id="paint6_linear" x1="402.249" y1="545.265" x2="408.28" y2="545.265" gradientUnits="userSpaceOnUse">
<stop stop-color="#FF512F"/>
<stop offset="1" stop-color="#F09819"/>
</linearGradient>
<linearGradient id="paint7_linear" x1="436.249" y1="554.265" x2="442.28" y2="554.265" gradientUnits="userSpaceOnUse">
<stop stop-color="#C21500"/>
<stop offset="1" stop-color="#FFC500"/>
</linearGradient>
<linearGradient id="paint8_linear" x1="380.249" y1="521.265" x2="386.28" y2="521.265" gradientUnits="userSpaceOnUse">
<stop stop-color="#FF512F"/>
<stop offset="1" stop-color="#F09819"/>
</linearGradient>
<linearGradient id="paint9_linear" x1="382.625" y1="529.629" x2="416.632" y2="529.629" gradientUnits="userSpaceOnUse">
<stop stop-color="#C21500"/>
<stop offset="1" stop-color="#FFC500"/>
</linearGradient>
<linearGradient id="paint10_linear" x1="415.749" y1="542.503" x2="435.257" y2="542.503" gradientUnits="userSpaceOnUse">
<stop stop-color="#FF4E50"/>
<stop offset="1" stop-color="#F9D423"/>
</linearGradient>
<linearGradient id="paint11_linear" x1="503.973" y1="541.546" x2="515.119" y2="541.546" gradientUnits="userSpaceOnUse">
<stop stop-color="#FF512F"/>
<stop offset="1" stop-color="#F09819"/>
</linearGradient>
<linearGradient id="paint12_linear" x1="478.71" y1="515.083" x2="539.456" y2="515.083" gradientUnits="userSpaceOnUse">
<stop stop-color="#FF8008"/>
<stop offset="1" stop-color="#FFC837"/>
</linearGradient>
<linearGradient id="paint13_linear" x1="506.395" y1="530.765" x2="513.134" y2="530.765" gradientUnits="userSpaceOnUse">
<stop stop-color="#FF4E50"/>
<stop offset="1" stop-color="#F9D423"/>
</linearGradient>
<linearGradient id="paint14_linear" x1="308.65" y1="471.245" x2="436.984" y2="375.691" gradientUnits="userSpaceOnUse">
<stop stop-color="#536976"/>
<stop offset="1" stop-color="#292E49"/>
</linearGradient>
<linearGradient id="paint15_linear" x1="187.579" y1="301.428" x2="307.652" y2="211.524" gradientUnits="userSpaceOnUse">
<stop stop-color="#757F9A"/>
<stop offset="1" stop-color="#D7DDE8"/>
</linearGradient>
<linearGradient id="paint16_linear" x1="187.579" y1="301.428" x2="307.652" y2="211.524" gradientUnits="userSpaceOnUse">
<stop stop-color="#757F9A"/>
<stop offset="1" stop-color="#D7DDE8"/>
</linearGradient>
<linearGradient id="paint17_linear" x1="187.579" y1="301.428" x2="307.652" y2="211.524" gradientUnits="userSpaceOnUse">
<stop stop-color="#757F9A"/>
<stop offset="1" stop-color="#D7DDE8"/>
</linearGradient>
<linearGradient id="paint18_linear" x1="130.996" y1="165.282" x2="203.996" y2="165.282" gradientUnits="userSpaceOnUse">
<stop/>
<stop offset="1" stop-color="#434343"/>
</linearGradient>
<linearGradient id="paint19_linear" x1="171.189" y1="173.915" x2="190.189" y2="173.915" gradientUnits="userSpaceOnUse">
<stop/>
<stop offset="1" stop-color="#434343"/>
</linearGradient>
</defs>
</svg>
