<svg width="259" height="277" viewBox="0 0 259 277" fill="none" xmlns="http://www.w3.org/2000/svg">
<g filter="url(#filter0_d)">
<ellipse cx="188.464" cy="207.043" rx="36.534" ry="13.0442" transform="rotate(47 188.464 207.043)" fill="url(#paint0_linear)"/>
<ellipse cx="190.623" cy="189.45" rx="23.5101" ry="13.0442" transform="rotate(22.2203 190.623 189.45)" fill="url(#paint1_linear)"/>
<ellipse cx="165.097" cy="200.285" rx="16.6649" ry="13.0442" transform="rotate(75.8157 165.097 200.285)" fill="url(#paint2_linear)"/>
<circle cx="176.168" cy="218.068" r="2.05483" transform="rotate(-135 176.168 218.068)" fill="url(#paint3_linear)"/>
<circle cx="212.264" cy="203.985" r="2.54832" transform="rotate(-135 212.264 203.985)" fill="url(#paint4_linear)"/>
<circle cx="213.82" cy="216.432" r="1.17304" transform="rotate(-135 213.82 216.432)" fill="url(#paint5_linear)"/>
<circle cx="177.644" cy="228.102" r="1.17304" transform="rotate(-135 177.644 228.102)" fill="url(#paint6_linear)"/>
<circle cx="190.869" cy="231.603" r="1.17304" transform="rotate(-135 190.869 231.603)" fill="url(#paint7_linear)"/>
<circle cx="169.086" cy="218.766" r="1.17304" transform="rotate(-135 169.086 218.766)" fill="url(#paint8_linear)"/>
<ellipse cx="175.451" cy="222.02" rx="6.61419" ry="0.333173" transform="rotate(-135 175.451 222.02)" fill="url(#paint9_linear)"/>
<ellipse cx="185.516" cy="227.028" rx="3.79434" ry="0.333173" transform="rotate(-135 185.516 227.028)" fill="url(#paint10_linear)"/>
<ellipse cx="218.208" cy="226.656" rx="2.16776" ry="0.333173" transform="rotate(-135 218.208 226.656)" fill="url(#paint11_linear)"/>
<ellipse cx="218.028" cy="216.362" rx="11.8149" ry="0.333173" transform="rotate(-135 218.028 216.362)" fill="url(#paint12_linear)"/>
<circle cx="218.293" cy="222.462" r="1.31057" transform="rotate(-135 218.293 222.462)" fill="url(#paint13_linear)"/>
<path d="M152.835 170.507C153.143 167.606 155.859 165.583 158.727 166.12L181.215 170.328C185.5 171.13 186.778 176.649 183.281 179.253L158.378 197.796C154.881 200.399 149.959 197.593 150.42 193.257L152.835 170.507Z" fill="url(#paint14_linear)"/>
<path d="M161.432 131.79C161.663 129.528 163.777 127.945 166.012 128.36L208.129 136.183C211.461 136.802 212.463 141.09 209.75 143.121L163.282 177.914C160.568 179.946 156.736 177.777 157.08 174.405L161.432 131.79Z" fill="url(#paint15_linear)"/>
<path d="M114.703 166.778C114.934 164.516 117.047 162.934 119.283 163.349L161.4 171.171C164.732 171.79 165.734 176.078 163.021 178.109L116.552 212.903C113.839 214.934 110.007 212.765 110.351 209.394L114.703 166.778Z" fill="url(#paint16_linear)"/>
<path d="M63.7069 94.1742C54.0497 81.2765 56.6768 62.9922 69.5745 53.3351C82.4722 43.6779 100.757 46.305 110.414 59.2027L186.185 160.401C186.314 160.573 186.279 160.816 186.107 160.945L140.023 195.451C139.851 195.579 139.607 195.544 139.479 195.372L63.7069 94.1742Z" fill="url(#paint17_linear)"/>
<rect x="70.9562" y="76.5977" width="28.3962" height="7.39079" rx="3.6954" transform="rotate(-36.8239 70.9562 76.5977)" fill="url(#paint18_linear)"/>
<rect x="86.5908" y="79.9556" width="7.39079" height="7.39079" rx="3.6954" transform="rotate(-36.8239 86.5908 79.9556)" fill="url(#paint19_linear)"/>
</g>
<defs>
<filter id="filter0_d" x="0" y="0" width="246.618" height="266.658" filterUnits="userSpaceOnUse" color-interpolation-filters="sRGB">
<feFlood flood-opacity="0" result="BackgroundImageFix"/>
<feColorMatrix in="SourceAlpha" type="matrix" values="0 0 0 0 0 0 0 0 0 0 0 0 0 0 0 0 0 0 127 0"/>
<feOffset dy="4"/>
<feGaussianBlur stdDeviation="10"/>
<feColorMatrix type="matrix" values="0 0 0 0 1 0 0 0 0 1 0 0 0 0 1 0 0 0 0.1 0"/>
<feBlend mode="normal" in2="BackgroundImageFix" result="effect1_dropShadow"/>
<feBlend mode="normal" in="SourceGraphic" in2="effect1_dropShadow" result="shape"/>
</filter>
<linearGradient id="paint0_linear" x1="151.929" y1="207.043" x2="224.998" y2="207.043" gradientUnits="userSpaceOnUse">
<stop stop-color="#C86403"/>
<stop offset="1" stop-color="#FFE259"/>
</linearGradient>
<linearGradient id="paint1_linear" x1="167.113" y1="189.45" x2="214.133" y2="189.45" gradientUnits="userSpaceOnUse">
<stop stop-color="#C86403"/>
<stop offset="1" stop-color="#FFE259"/>
</linearGradient>
<linearGradient id="paint2_linear" x1="148.432" y1="200.285" x2="181.761" y2="200.285" gradientUnits="userSpaceOnUse">
<stop stop-color="#C86403"/>
<stop offset="1" stop-color="#FFE259"/>
</linearGradient>
<linearGradient id="paint3_linear" x1="174.113" y1="218.068" x2="178.223" y2="218.068" gradientUnits="userSpaceOnUse">
<stop stop-color="#FF512F"/>
<stop offset="1" stop-color="#F09819"/>
</linearGradient>
<linearGradient id="paint4_linear" x1="209.715" y1="203.985" x2="214.812" y2="203.985" gradientUnits="userSpaceOnUse">
<stop stop-color="#C21500"/>
<stop offset="1" stop-color="#FFC500"/>
</linearGradient>
<linearGradient id="paint5_linear" x1="212.647" y1="216.432" x2="214.993" y2="216.432" gradientUnits="userSpaceOnUse">
<stop stop-color="#C21500"/>
<stop offset="1" stop-color="#FFC500"/>
</linearGradient>
<linearGradient id="paint6_linear" x1="176.471" y1="228.102" x2="178.817" y2="228.102" gradientUnits="userSpaceOnUse">
<stop stop-color="#FF512F"/>
<stop offset="1" stop-color="#F09819"/>
</linearGradient>
<linearGradient id="paint7_linear" x1="189.696" y1="231.603" x2="192.042" y2="231.603" gradientUnits="userSpaceOnUse">
<stop stop-color="#C21500"/>
<stop offset="1" stop-color="#FFC500"/>
</linearGradient>
<linearGradient id="paint8_linear" x1="167.913" y1="218.766" x2="170.259" y2="218.766" gradientUnits="userSpaceOnUse">
<stop stop-color="#FF512F"/>
<stop offset="1" stop-color="#F09819"/>
</linearGradient>
<linearGradient id="paint9_linear" x1="168.837" y1="222.02" x2="182.066" y2="222.02" gradientUnits="userSpaceOnUse">
<stop stop-color="#C21500"/>
<stop offset="1" stop-color="#FFC500"/>
</linearGradient>
<linearGradient id="paint10_linear" x1="181.722" y1="227.028" x2="189.31" y2="227.028" gradientUnits="userSpaceOnUse">
<stop stop-color="#FF4E50"/>
<stop offset="1" stop-color="#F9D423"/>
</linearGradient>
<linearGradient id="paint11_linear" x1="216.04" y1="226.656" x2="220.376" y2="226.656" gradientUnits="userSpaceOnUse">
<stop stop-color="#FF512F"/>
<stop offset="1" stop-color="#F09819"/>
</linearGradient>
<linearGradient id="paint12_linear" x1="206.213" y1="216.362" x2="229.843" y2="216.362" gradientUnits="userSpaceOnUse">
<stop stop-color="#FF8008"/>
<stop offset="1" stop-color="#FFC837"/>
</linearGradient>
<linearGradient id="paint13_linear" x1="216.982" y1="222.462" x2="219.604" y2="222.462" gradientUnits="userSpaceOnUse">
<stop stop-color="#FF4E50"/>
<stop offset="1" stop-color="#F9D423"/>
</linearGradient>
<linearGradient id="paint14_linear" x1="140.062" y1="199.309" x2="189.982" y2="162.14" gradientUnits="userSpaceOnUse">
<stop stop-color="#536976"/>
<stop offset="1" stop-color="#292E49"/>
</linearGradient>
<linearGradient id="paint15_linear" x1="92.9664" y1="133.252" x2="139.673" y2="98.2807" gradientUnits="userSpaceOnUse">
<stop stop-color="#757F9A"/>
<stop offset="1" stop-color="#D7DDE8"/>
</linearGradient>
<linearGradient id="paint16_linear" x1="92.9664" y1="133.252" x2="139.673" y2="98.2807" gradientUnits="userSpaceOnUse">
<stop stop-color="#757F9A"/>
<stop offset="1" stop-color="#D7DDE8"/>
</linearGradient>
<linearGradient id="paint17_linear" x1="92.9664" y1="133.252" x2="139.673" y2="98.2807" gradientUnits="userSpaceOnUse">
<stop stop-color="#757F9A"/>
<stop offset="1" stop-color="#D7DDE8"/>
</linearGradient>
<linearGradient id="paint18_linear" x1="70.9562" y1="80.2931" x2="99.3524" y2="80.2931" gradientUnits="userSpaceOnUse">
<stop/>
<stop offset="1" stop-color="#434343"/>
</linearGradient>
<linearGradient id="paint19_linear" x1="86.5908" y1="83.651" x2="93.9816" y2="83.651" gradientUnits="userSpaceOnUse">
<stop/>
<stop offset="1" stop-color="#434343"/>
</linearGradient>
</defs>
</svg>
