<svg width="100" height="100" viewBox="0 0 100 100" fill="none" xmlns="http://www.w3.org/2000/svg">
<g clip-path="url(#clip0)">
<path d="M23.3333 69.96L25.0467 67.1L24.2533 66.6333H23.3333V69.9667V69.96ZM23.3333 29.9867V33.32H24.2533L25.0533 32.8467L23.3333 29.9867ZM56.6667 10H60C60.0001 9.41023 59.8438 8.83098 59.5469 8.32138C59.25 7.81178 58.8232 7.39007 58.3101 7.09928C57.797 6.8085 57.216 6.65906 56.6262 6.66622C56.0365 6.67337 55.4592 6.83686 54.9533 7.14L56.6667 10ZM56.6667 89.9467L54.9533 92.8067C55.4592 93.1098 56.0365 93.2733 56.6262 93.2805C57.216 93.2876 57.797 93.1382 58.3101 92.8474C58.8232 92.5566 59.25 92.1349 59.5469 91.6253C59.8438 91.1157 60.0001 90.5364 60 89.9467H56.6667ZM92.3533 27.6267L90 25.2733L85.2867 29.9867L87.6467 32.3467L92.3533 27.6267ZM87.6467 67.6L85.2867 69.96L90 74.6733L92.3533 72.32L87.6467 67.6ZM23.3333 66.6267H10V73.2933H23.3333V66.6267ZM10 66.6267C9.11594 66.6267 8.2681 66.2755 7.64298 65.6504C7.01786 65.0252 6.66667 64.1774 6.66667 63.2933H0C0 68.8267 4.48 73.2933 10 73.2933V66.6267ZM6.66667 63.2933V36.6533H0V63.3067H6.66667V63.2933ZM6.66667 36.6467C6.66843 35.7638 7.0204 34.9176 7.64533 34.294C8.27026 33.6703 9.1171 33.32 10 33.32V26.6533C7.34784 26.6533 4.8043 27.7069 2.92893 29.5823C1.05357 31.4576 0 34.0012 0 36.6533H6.66667V36.6467ZM10 33.32H23.3333V26.6533H10V33.32ZM25.0467 32.8467L58.38 12.86L54.9533 7.14L21.62 27.1267L25.0467 32.8467ZM53.3333 10V89.9467H60V10H53.3333ZM58.38 87.0867L25.0467 67.1L21.62 72.82L54.9533 92.8067L58.38 87.0867ZM90 29.9867C87.6467 32.3467 87.64 32.3467 87.64 32.34C87.6349 32.3362 87.6305 32.3317 87.6267 32.3267L87.6467 32.3467L87.78 32.4933C88.7836 33.7198 89.6467 35.0548 90.3533 36.4733C91.82 39.4 93.3333 43.8867 93.3333 49.9733H100C100 42.7333 98.1867 37.2333 96.3133 33.4933C95.5753 31.9987 94.7051 30.5731 93.7133 29.2333C93.3346 28.732 92.9319 28.2492 92.5067 27.7867L92.4133 27.6867L92.38 27.6533L92.3667 27.64L92.36 27.6333L90 29.9867ZM93.3333 49.9733C93.3333 56.06 91.8133 60.5467 90.3533 63.4733C89.6468 64.8919 88.7837 66.2269 87.78 67.4533C87.7364 67.503 87.692 67.5519 87.6467 67.6L87.6267 67.62L87.6333 67.6133L87.64 67.6067L90 69.96C92.3533 72.32 92.36 72.32 92.36 72.3133H92.3667L92.38 72.2933L92.4133 72.26L92.5067 72.1667L92.7933 71.8467C93.0267 71.58 93.34 71.2 93.7067 70.7133C94.44 69.74 95.38 68.3133 96.3133 66.4533C98.18 62.72 100 57.2133 100 49.9733H93.3333Z" fill="white"/>
</g>
<defs>
<clipPath id="clip0">
<rect width="100" height="100" fill="white"/>
</clipPath>
</defs>
</svg>
