<svg width="317" height="239" viewBox="0 0 317 239" fill="none" xmlns="http://www.w3.org/2000/svg">
<ellipse cx="86.6913" cy="149.402" rx="1.11588" ry="0.609581" transform="rotate(-90 86.6913 149.402)" fill="#C4C4C4"/>
<ellipse cx="237.38" cy="20.8524" rx="1.11588" ry="0.609581" transform="rotate(-90 237.38 20.8524)" fill="#C4C4C4"/>
<ellipse cx="255.911" cy="115.479" rx="1.11588" ry="0.609581" transform="rotate(-90 255.911 115.479)" fill="#C4C4C4"/>
<ellipse cx="300.045" cy="141.367" rx="1.11588" ry="0.609581" transform="rotate(-90 300.045 141.367)" fill="#C4C4C4"/>
<ellipse cx="315.406" cy="67.2729" rx="1.11588" ry="0.609581" transform="rotate(-90 315.406 67.2729)" fill="#C4C4C4"/>
<ellipse cx="261.275" cy="53.8824" rx="1.11588" ry="0.609581" transform="rotate(-90 261.275 53.8824)" fill="#C4C4C4"/>
<ellipse cx="216.41" cy="68.612" rx="1.11588" ry="0.609581" transform="rotate(-90 216.41 68.612)" fill="#C4C4C4"/>
<ellipse cx="213.24" cy="124.852" rx="1.11588" ry="0.609581" transform="rotate(-90 213.24 124.852)" fill="#C4C4C4"/>
<ellipse cx="2.81283" cy="233.762" rx="1.11588" ry="0.609581" transform="rotate(-90 2.81283 233.762)" fill="#C4C4C4"/>
<ellipse cx="90.5926" cy="237.333" rx="1.11588" ry="0.609581" transform="rotate(-90 90.5926 237.333)" fill="#C4C4C4"/>
<ellipse cx="172.033" cy="199.84" rx="1.11588" ry="0.609581" transform="rotate(-90 172.033 199.84)" fill="#C4C4C4"/>
<ellipse cx="216.166" cy="225.728" rx="1.11588" ry="0.609581" transform="rotate(-90 216.166 225.728)" fill="#C4C4C4"/>
<ellipse cx="231.528" cy="151.633" rx="1.11588" ry="0.609581" transform="rotate(-90 231.528 151.633)" fill="#C4C4C4"/>
<ellipse cx="177.397" cy="138.243" rx="1.11588" ry="0.609581" transform="rotate(-90 177.397 138.243)" fill="#C4C4C4"/>
<ellipse cx="132.532" cy="152.972" rx="1.11588" ry="0.609581" transform="rotate(-90 132.532 152.972)" fill="#C4C4C4"/>
<ellipse cx="129.362" cy="209.213" rx="1.11588" ry="0.609581" transform="rotate(-90 129.362 209.213)" fill="#C4C4C4"/>
<ellipse cx="1.59371" cy="2.10562" rx="1.11588" ry="0.609581" transform="rotate(-90 1.59371 2.10562)" fill="#C4C4C4"/>
<ellipse cx="4.03201" cy="78.8781" rx="1.11588" ry="0.609581" transform="rotate(-90 4.03201 78.8781)" fill="#C4C4C4"/>
<ellipse cx="54.0177" cy="58.7923" rx="1.11588" ry="0.609581" transform="rotate(-90 54.0177 58.7923)" fill="#C4C4C4"/>
<ellipse cx="90.5926" cy="123.067" rx="1.11588" ry="0.609581" transform="rotate(-90 90.5926 123.067)" fill="#C4C4C4"/>
<ellipse cx="83.7653" cy="215.908" rx="1.11588" ry="0.609581" transform="rotate(-90 83.7653 215.908)" fill="#C4C4C4"/>
</svg>
