<svg width="60" height="24" viewBox="0 0 60 24" fill="none" xmlns="http://www.w3.org/2000/svg">
<g filter="url(#filter0_d)">
<path d="M19.04 6.41758H13.9096L12 1.03998L10.0888 6.41758H4.95923L9.14483 9.57518L7.64803 15.1184L12 11.7952L16.3504 15.1184L14.8552 9.57518L19.04 6.41758ZM12 10.2264L9.58883 12.2264L10.5832 9.37678L8.30243 7.53678L11.12 7.61758L12 4.38558L12.8792 7.61758L15.696 7.53678L13.4152 9.37678L14.4096 12.2264L12 10.2264Z" fill="white"/>
</g>
<g filter="url(#filter1_d)">
<path d="M37.04 6.41758H31.9096L30 1.03998L28.0888 6.41758H22.9592L27.1448 9.57518L25.648 15.1184L30 11.7952L34.3504 15.1184L32.8552 9.57518L37.04 6.41758ZM30 10.2264L27.5888 12.2264L28.5832 9.37678L26.3024 7.53678L29.12 7.61758L30 4.38558L30.8792 7.61758L33.696 7.53678L31.4152 9.37678L32.4096 12.2264L30 10.2264Z" fill="white"/>
</g>
<g filter="url(#filter2_d)">
<path d="M55.04 6.41758H49.9096L48 1.03998L46.0888 6.41758H40.9592L45.1448 9.57518L43.648 15.1184L48 11.7952L52.3504 15.1184L50.8552 9.57518L55.04 6.41758ZM48 10.2264L45.5888 12.2264L46.5832 9.37678L44.3024 7.53678L47.12 7.61758L48 4.38558L48.8792 7.61758L51.696 7.53678L49.4152 9.37678L50.4096 12.2264L48 10.2264Z" fill="white"/>
</g>
<defs>
<filter id="filter0_d" x="0" y="0" width="24" height="24" filterUnits="userSpaceOnUse" color-interpolation-filters="sRGB">
<feFlood flood-opacity="0" result="BackgroundImageFix"/>
<feColorMatrix in="SourceAlpha" type="matrix" values="0 0 0 0 0 0 0 0 0 0 0 0 0 0 0 0 0 0 127 0"/>
<feOffset dy="4"/>
<feGaussianBlur stdDeviation="2"/>
<feColorMatrix type="matrix" values="0 0 0 0 0 0 0 0 0 0 0 0 0 0 0 0 0 0 0.25 0"/>
<feBlend mode="normal" in2="BackgroundImageFix" result="effect1_dropShadow"/>
<feBlend mode="normal" in="SourceGraphic" in2="effect1_dropShadow" result="shape"/>
</filter>
<filter id="filter1_d" x="18" y="0" width="24" height="24" filterUnits="userSpaceOnUse" color-interpolation-filters="sRGB">
<feFlood flood-opacity="0" result="BackgroundImageFix"/>
<feColorMatrix in="SourceAlpha" type="matrix" values="0 0 0 0 0 0 0 0 0 0 0 0 0 0 0 0 0 0 127 0"/>
<feOffset dy="4"/>
<feGaussianBlur stdDeviation="2"/>
<feColorMatrix type="matrix" values="0 0 0 0 0 0 0 0 0 0 0 0 0 0 0 0 0 0 0.25 0"/>
<feBlend mode="normal" in2="BackgroundImageFix" result="effect1_dropShadow"/>
<feBlend mode="normal" in="SourceGraphic" in2="effect1_dropShadow" result="shape"/>
</filter>
<filter id="filter2_d" x="36" y="0" width="24" height="24" filterUnits="userSpaceOnUse" color-interpolation-filters="sRGB">
<feFlood flood-opacity="0" result="BackgroundImageFix"/>
<feColorMatrix in="SourceAlpha" type="matrix" values="0 0 0 0 0 0 0 0 0 0 0 0 0 0 0 0 0 0 127 0"/>
<feOffset dy="4"/>
<feGaussianBlur stdDeviation="2"/>
<feColorMatrix type="matrix" values="0 0 0 0 0 0 0 0 0 0 0 0 0 0 0 0 0 0 0.25 0"/>
<feBlend mode="normal" in2="BackgroundImageFix" result="effect1_dropShadow"/>
<feBlend mode="normal" in="SourceGraphic" in2="effect1_dropShadow" result="shape"/>
</filter>
</defs>
</svg>
